<?xml version="1.0" encoding="utf-8"?>
<!-- Generator: Adobe Illustrator 20.1.0, SVG Export Plug-In . SVG Version: 6.00 Build 0)  -->
<svg version="1.1" id="Ebene_1" xmlns="http://www.w3.org/2000/svg" xmlns:xlink="http://www.w3.org/1999/xlink" x="0px" y="0px"
	 width="1024px" height="768px" viewBox="0 0 1024 768" enable-background="new 0 0 1024 768" xml:space="preserve">
<g>
	<g>
		<g>
			<path fill="#FFFFFF" d="M319.5,328.5l48.5,101.2l-26.7,58.5l-72.8-159.7H319.5z M426.9,473.6h43.7V252.3l-43.7,10.9V473.6z
				 M743.8,473.6h43.7V252.3l-43.7,10.9V473.6z M136.2,368.9c0,0-68.1-60-68.4-60.3c-3.1-2.8-5.7-6.4-7.2-10.7
				c-4.1-11.1-1.7-21.4,6.9-28.5c2.2-1.8,9.6-6.4,23.2-6.6v-3.1c-6.3,0-12.3,0-24.4,2.3c-24.8,4.7-48.1,26-48.2,52
				c-0.1,13.6,7.7,28.6,21.9,43c0,0,53,46.6,53.4,46.9c32.2,25.5,25.1,64.1-15.3,69.8v3.6c9.4,0.1,36-0.4,46.6-3
				C162.5,465.1,192.2,418.3,136.2,368.9 M149,259.5l-50.9,0.1l50.9,43.5V259.5z M21.6,477.3l50.9-0.1l-50.9-43.5V477.3z
				 M498.2,473.6h43.7V328.5h-43.7V473.6z M520,259.5c-14,0-25.4,11.4-25.4,25.4c0,14,11.4,25.4,25.4,25.4c14,0,25.4-11.4,25.4-25.4
				C545.4,270.9,534,259.5,520,259.5 M845.8,323c-39,0-50.4,24.3-52.6,29.1v3.7c5.7-7,14.8-12.8,27.1-12.8
				c20.1,0,25.5,10.5,25.5,25.4v105.2h43.7l0-101.6C889.5,357.5,892.2,323,845.8,323 M902.5,333.9h18.2v-5.5h-20L902.5,333.9z
				 M1010.2,450.5c-4.7,5.2-12,8.6-20.3,8.6c-14.1,0-25.5-9.7-25.5-21.8v-16.6c-0.1-3.1,0-5.1,0-5.1v-81.6h43.7l-1.8-5.5h-41.9
				v-43.6l-43.7,10.9v134.3c0,18.8,4.8,47.2,43.7,47.2c38.9,0,48.5-24.3,48.5-24.3L1010.2,450.5z M282.1,450.5
				c-4.7,5.2-12,8.6-20.3,8.6c-14,0-25.4-9.7-25.4-21.8v-1.2v-15.4c-0.1-3.1,0-5.1,0-5.1v-81.6H266l-2.9-5.5h-26.8v-43.6l-43.7,10.9
				v32.7h-20l1.8,5.5h18.2v96.2c0,18.8,4.8,47.2,43.7,47.2c38.9,0,48.5-24.3,48.5-24.3L282.1,450.5z M390.3,381l27.5-52.5h-54.6
				L390.3,381z M305,491.8c-14,0-25.4,11.4-25.4,25.4c0,14,11.4,25.4,25.4,25.4c14,0,25.4-11.4,25.4-25.4
				C330.4,503.2,319,491.8,305,491.8 M576,378.6c0-28.3,22.5-51.3,62.7-51.3c39.9,0,62.7,23,62.7,51.3c0,24.6-16.8,45.1-47.7,50.1
				c-4.7,0.8-9.7,1.2-15,1.2c-15.9,0-28.9-3.6-39-9.6l-2.8-1.8c-2-1.4-3.8-2.8-5.5-4.4C581.3,404.9,576,392.4,576,378.6
				 M621.7,378.3c0,14.5-0.3,25.2,1.5,31.4c0,0.1,0.1,0.3,0.1,0.4c0.1,0.5,0.3,0.9,0.5,1.3c0,0,0,0,0,0.1c0.1,0.3,0.3,0.6,0.4,0.9
				c2.6,5.3,8,8.9,14.3,8.9c5.7,0,10.8-3,13.6-7.6c3.9-4.7,3.4-17,3.4-35.4c0-16.9,0.4-28.6-2.5-34.1c-2.6-5.4-8.1-9.1-14.4-9.1
				c-7.5,0-13.8,5.2-15.5,12.1C621.4,353.4,621.7,364,621.7,378.3 M718,500.3c0,12.7-7.8,51.2-74.4,52.6c-31.3,0.6-78.2-6.6-78.2-40
				c0-10.7,8.9-21.9,22.2-25.9c-8.5-7.3-12.3-17.5-13-23c-3.2-23.4,11.7-36.5,20.7-41l2.2,1.3c-1.5,0.6-4.9,3.5-4.9,3.5
				c-2.6,2.4-4.6,5.7-4.6,9.6c0,7.2,5.7,13.4,13.4,13.4c16.7,0,67.1,0,67.1,0C695.9,450.7,718,472.9,718,500.3 M692.9,517.8
				c0.2-13.7-11.1-22.2-24.8-22.2l-55.8,0c-3.1,0-5.9-0.3-8.5-0.9h0c-6,3.3-9.2,12-9.3,18.9c-0.1,5.4-2,33.3,49.2,33.3
				C670.9,546.9,692.6,536.1,692.9,517.8 M718,294.2l-52.4,27.1l52.4,27.1V294.2z"/>
		</g>
	</g>
</g>
</svg>
